<?xml version="1.0" encoding="utf-8"?><svg xmlns="http://www.w3.org/2000/svg" xmlns:xlink="http://www.w3.org/1999/xlink"><symbol viewBox="0 0 19 13" id="eye" xmlns="http://www.w3.org/2000/svg"><path d="M9.50008 4.125C10.13 4.125 10.7341 4.37522 11.1795 4.82062C11.6249 5.26602 11.8751 5.87011 11.8751 6.5C11.8751 7.12989 11.6249 7.73398 11.1795 8.17938C10.7341 8.62478 10.13 8.875 9.50008 8.875C8.87019 8.875 8.2661 8.62478 7.8207 8.17938C7.3753 7.73398 7.12508 7.12989 7.12508 6.5C7.12508 5.87011 7.3753 5.26602 7.8207 4.82062C8.2661 4.37522 8.87019 4.125 9.50008 4.125ZM9.50008 0.5625C13.4584 0.5625 16.8388 3.02458 18.2084 6.5C16.8388 9.97542 13.4584 12.4375 9.50008 12.4375C5.54175 12.4375 2.16133 9.97542 0.791748 6.5C2.16133 3.02458 5.54175 0.5625 9.50008 0.5625ZM2.51758 6.5C3.15745 7.80649 4.15103 8.90726 5.38538 9.67716C6.61972 10.4471 8.04531 10.8552 9.50008 10.8552C10.9549 10.8552 12.3804 10.4471 13.6148 9.67716C14.8491 8.90726 15.8427 7.80649 16.4826 6.5C15.8427 5.19351 14.8491 4.09274 13.6148 3.32284C12.3804 2.55294 10.9549 2.14479 9.50008 2.14479C8.04531 2.14479 6.61972 2.55294 5.38538 3.32284C4.15103 4.09274 3.15745 5.19351 2.51758 6.5Z"/></symbol><symbol viewBox="0 0 17 15" id="heart" xmlns="http://www.w3.org/2000/svg"><path d="M8.58499 12.7111L8.49998 12.793L8.40649 12.7111C4.36899 9.18802 1.7 6.85831 1.7 4.49592C1.7 2.86103 2.975 1.63488 4.67499 1.63488C5.98399 1.63488 7.25899 2.45232 7.70948 3.56403H9.29048C9.74098 2.45232 11.016 1.63488 12.3249 1.63488C14.025 1.63488 15.3 2.86103 15.3 4.49592C15.3 6.85831 12.6309 9.18802 8.58499 12.7111ZM12.3249 0C10.8459 0 9.42649 0.662125 8.49998 1.70027C7.57348 0.662125 6.15398 0 4.67499 0C2.057 0 0 1.97002 0 4.49592C0 7.57767 2.88999 10.1035 7.26749 13.921L8.49998 15L9.73248 13.921C14.1099 10.1035 17 7.57767 17 4.49592C17 1.97002 14.943 0 12.3249 0Z"/></symbol><symbol viewBox="0 0 10 13" id="play" xmlns="http://www.w3.org/2000/svg"><path d="M0.916748 1.25L9.08341 6.5L0.916748 11.75V1.25Z" stroke-width="1.2" stroke-linecap="round" stroke-linejoin="round"/></symbol><symbol viewBox="0 0 20 20" id="x" xmlns="http://www.w3.org/2000/svg"><path d="M15 5L5 15" stroke-width="2" stroke-linecap="round" stroke-linejoin="round"/><path d="M5 5L15 15" stroke-width="2" stroke-linecap="round" stroke-linejoin="round"/></symbol></svg>