<?xml version="1.0" encoding="utf-8"?><svg viewBox="0 0 20 20" xmlns="http://www.w3.org/2000/svg" xmlns:xlink="http://www.w3.org/1999/xlink"><style>:root>svg{display:none}:root>svg:target{display:block}</style><svg fill="none" viewBox="0 0 19 13" id="eye" xmlns="http://www.w3.org/2000/svg">
    <path d="M9.5 4.125a2.375 2.375 0 1 1 0 4.75 2.375 2.375 0 0 1 0-4.75Zm0-3.563c3.958 0 7.339 2.463 8.708 5.938-1.37 3.475-4.75 5.938-8.708 5.938S2.161 9.974.792 6.5C2.162 3.025 5.542.562 9.5.562ZM2.518 6.5a7.775 7.775 0 0 0 13.965 0 7.776 7.776 0 0 0-13.965 0Z" fill="#fff"/>
</svg><svg fill="none" viewBox="0 0 17 15" id="heart" xmlns="http://www.w3.org/2000/svg">
    <path d="m8.585 12.711-.085.082-.094-.082C4.37 9.188 1.7 6.858 1.7 4.496c0-1.635 1.275-2.861 2.975-2.861 1.309 0 2.584.817 3.034 1.929H9.29c.451-1.112 1.726-1.93 3.035-1.93 1.7 0 2.975 1.227 2.975 2.862 0 2.362-2.67 4.692-6.715 8.215ZM12.325 0A5.198 5.198 0 0 0 8.5 1.7 5.198 5.198 0 0 0 4.675 0C2.057 0 0 1.97 0 4.496c0 3.082 2.89 5.607 7.267 9.425L8.5 15l1.232-1.079C14.11 10.104 17 7.578 17 4.496 17 1.97 14.943 0 12.325 0Z" fill="#fff"/>
</svg><svg fill="none" viewBox="0 0 10 13" id="play" xmlns="http://www.w3.org/2000/svg">
    <path d="M.917 1.25 9.083 6.5.917 11.75V1.25Z" stroke="#fff" stroke-width="1.2" stroke-linecap="round" stroke-linejoin="round"/>
</svg><svg fill="none" viewBox="0 0 20 20" id="x" xmlns="http://www.w3.org/2000/svg">
    <path d="M15 5 5 15M5 5l10 10" stroke="#444" stroke-width="2" stroke-linecap="round" stroke-linejoin="round"/>
</svg></svg>